<svg width="30" height="30" fill="none" xmlns="http://www.w3.org/2000/svg"><path d="M.974 28.702h3.9a.974.974 0 00.974-.974V10.68a.974.974 0 00-.974-.974h-3.9A.974.974 0 000 10.68v17.047c0 .538.436.974.974.974zm0-21.992h3.9a.974.974 0 00.974-.975V2.272a.974.974 0 00-.974-.974h-3.9A.974.974 0 000 2.272v3.463c0 .538.436.975.974.975zm27.559 4.974c-.548-.722-1.357-1.315-2.425-1.78-1.069-.465-2.248-.697-3.538-.697-2.62 0-4.84 1-6.66 3-.362.397-.625.31-.625-.228v-1.298a.974.974 0 00-.974-.974h-3.484a.974.974 0 00-.974.974v17.047c0 .538.436.974.974.974h3.9a.974.974 0 00.974-.974v-5.929c0-2.47.15-4.162.448-5.078a4.194 4.194 0 011.654-2.206c.805-.555 1.714-.833 2.727-.833.79 0 1.467.194 2.03.583.561.388.967.933 1.217 1.634.25.7.375 2.244.375 4.63v7.199c0 .538.436.974.974.974h3.9a.974.974 0 00.974-.974v-9.654c0-1.707-.108-3.018-.323-3.934a6.442 6.442 0 00-1.144-2.456z" fill="#353535"/></svg>