<svg width="19" height="19" fill="none" xmlns="http://www.w3.org/2000/svg"><g opacity=".7" fill="#353535"><path d="M16.285 4.75a2.717 2.717 0 00-2.715 2.714.678.678 0 101.358 0c0-.748.609-1.357 1.357-1.357s1.357.609 1.357 1.357c0 .749-.61 1.357-1.357 1.357H.73a.678.678 0 100 1.358h15.554a2.717 2.717 0 002.714-2.715 2.717 2.717 0 00-2.714-2.714z"/><path d="M9.5 2.036A2.717 2.717 0 006.786 4.75a.678.678 0 101.357 0 1.358 1.358 0 012.714 0c0 .748-.609 1.357-1.357 1.357H.679a.678.678 0 100 1.357H9.5a2.717 2.717 0 002.714-2.714A2.717 2.717 0 009.5 2.036zm0 9.5H.679a.678.678 0 100 1.357H9.5a1.358 1.358 0 010 2.714 1.359 1.359 0 01-1.357-1.357.678.678 0 10-1.357 0A2.717 2.717 0 009.5 16.964a2.717 2.717 0 002.714-2.714A2.717 2.717 0 009.5 11.536z"/></g></svg>